<?xml version="1.0" encoding="UTF-8"?>
<svg id="Capa_2" data-name="Capa 2" xmlns="http://www.w3.org/2000/svg" viewBox="0 0 28.9 29.81">
  <g id="Layer_1" data-name="Layer 1">
    <g>
      <path d="M12.53,0c-.56.99-1.09,1.74.32,2.25-1.82,1.53.08,1.64.12,2.16.03.35-.77.77-.77,1.12,0,.37.92.83.81,1.36-6.85.74-7.81,6.77-5.77,12.42.9,2.51,2.42,4.19,3.43,6.34,1.18,2.51-.6,5.25-3.38,3.7-1.88-1.05-4.65-5.75-5.53-7.78C-2.49,11.7.91,1.09,12.53,0ZM7.03,6.52c0-.67-.54-1.21-1.21-1.21s-1.21.54-1.21,1.21.54,1.21,1.21,1.21,1.21-.54,1.21-1.21ZM4.74,10.4c0-.66-.54-1.2-1.2-1.2s-1.2.54-1.2,1.2.54,1.2,1.2,1.2,1.2-.54,1.2-1.2ZM4.33,14.87c0-.67-.54-1.21-1.21-1.21s-1.21.54-1.21,1.21.54,1.21,1.21,1.21,1.21-.54,1.21-1.21ZM5.33,19.24c0-.67-.54-1.21-1.21-1.21s-1.21.54-1.21,1.21.54,1.21,1.21,1.21,1.21-.54,1.21-1.21Z"/>
      <path d="M15.89,6.73c1.87-1.44.19-1.75.19-2.32,0-.44,1.91-.89.13-2.08,1.32-.84.98-1.11.32-2.32,2.35.1,4.85.95,6.82,2.24,8.82,5.79,5.9,19.02-.25,25.72-1.07,1.16-3.03,2.66-4.41,1.05-2.06-2.41.9-5.11,1.99-7.32,1.68-3.41,3.08-8.17.95-11.65-1.27-2.07-3.39-3.03-5.74-3.32ZM24.36,6.47c0-.66-.54-1.2-1.2-1.2s-1.2.54-1.2,1.2.54,1.2,1.2,1.2,1.2-.54,1.2-1.2ZM26.6,10.34c0-.66-.54-1.2-1.2-1.2s-1.2.54-1.2,1.2.54,1.2,1.2,1.2,1.2-.54,1.2-1.2ZM27.01,14.78c0-.66-.54-1.2-1.2-1.2s-1.2.54-1.2,1.2.54,1.2,1.2,1.2,1.2-.54,1.2-1.2ZM26.01,19.13c0-.66-.54-1.2-1.2-1.2s-1.2.54-1.2,1.2.54,1.2,1.2,1.2,1.2-.54,1.2-1.2Z"/>
    </g>
  </g>
</svg>